# xmcd
#
# Track frame offsets: 
#        150
#        17648
#        33056
#        45752
#        64144
#        75807
#        95454
#        111371
#        126907
#        145084
#        164917
#        177248
#
# Disc length: 2792 seconds
#
# Revision: 3
# Processed by: cddbd v1.5.2PL0 Copyright (c) Steve Scherf et al.
# Submitted via: ExactAudioCopy v0.99pb4
#
DISCID=910ae60c
DTITLE=Notorious Cherry Bombs - The Notorious Cherry Bombs
DYEAR=2004
DGENRE=Country
TTITLE0=Let It Roll, Let It Ride
TTITLE1=If I Ever Break Your Heart
TTITLE2=Wait a Minute
TTITLE3=Making Memories of Us
TTITLE4=Oklahoma Dust
TTITLE5=Dangerous Curves
TTITLE6=Forever Someday
TTITLE7=On the Road to Ruin
TTITLE8=Heart of a Jealous Man
TTITLE9=It's Hard to Kiss the Lips at Night That Chew Your Ass out All
TTITLE9=Day Long
TTITLE10=Sweet Little Lisa
TTITLE11=Let It Roll, Let It Ride (Reprise)
EXTD=
EXTT0=
EXTT1=
EXTT2=
EXTT3=
EXTT4=
EXTT5=
EXTT6=
EXTT7=
EXTT8=
EXTT9=
EXTT10=
EXTT11=
PLAYORDER=
